<?xml version="1.0" standalone="no"?>
<!DOCTYPE svg PUBLIC "-//W3C//DTD SVG 20010904//EN"
 "http://www.w3.org/TR/2001/REC-SVG-20010904/DTD/svg10.dtd">
<svg version="1.0" xmlns="http://www.w3.org/2000/svg"
 width="500.000000pt" height="615.000000pt" viewBox="0 0 500.000000 615.000000"
 preserveAspectRatio="xMidYMid meet">

<g transform="translate(0.000000,615.000000) scale(0.100000,-0.100000)"
fill="#000000" stroke="none">
<path d="M3640 6140 c0 -5 7 -10 16 -10 8 0 12 5 9 10 -3 6 -10 10 -16 10 -5
0 -9 -4 -9 -10z"/>
<path d="M3890 6146 c0 -2 7 -9 15 -16 12 -10 15 -10 15 4 0 9 -7 16 -15 16
-8 0 -15 -2 -15 -4z"/>
<path d="M3950 6110 c0 -40 0 -40 39 -40 29 0 40 4 43 17 3 16 4 16 20 0 18
-19 108 -24 108 -7 0 6 7 10 15 10 8 0 15 -4 15 -10 0 -5 16 -10 36 -10 26 0
43 8 65 29 16 16 29 34 29 40 0 7 -48 11 -146 11 -128 0 -148 -2 -160 -17 -13
-17 -13 -17 -14 0 0 11 -8 17 -25 17 -22 0 -25 -4 -25 -40z"/>
<path d="M4480 6140 c0 -5 18 -10 40 -10 22 0 40 5 40 10 0 6 -18 10 -40 10
-22 0 -40 -4 -40 -10z"/>
<path d="M4570 6142 c0 -5 7 -17 15 -28 15 -19 15 -19 30 0 22 29 19 36 -15
36 -16 0 -30 -4 -30 -8z"/>
<path d="M4720 6140 c0 -5 18 -10 40 -10 34 0 48 -7 83 -40 23 -23 43 -36 45
-30 2 5 11 10 20 10 12 0 23 -17 35 -49 21 -61 21 -61 -3 -61 -11 0 -28 -8
-37 -17 -16 -16 -31 -17 -123 -12 -58 3 -113 10 -122 14 -11 4 -18 3 -18 -4 0
-14 -52 -14 -105 0 -22 6 -49 10 -60 10 -11 -1 -39 4 -63 10 -37 10 -44 10
-55 -5 -11 -15 -19 -16 -47 -8 l-35 9 25 11 c23 10 21 11 -20 12 -32 1 -39 4
-26 9 32 12 4 19 -49 11 -27 -4 -44 -8 -37 -9 7 0 10 -6 7 -11 -5 -8 -11 -7
-20 0 -20 17 -235 -8 -235 -27 0 -8 -12 -13 -29 -13 -16 0 -37 -3 -45 -6 -12
-5 -15 -2 -10 10 5 12 2 15 -12 10 -15 -4 -16 -4 -5 4 19 14 24 112 6 136 -12
15 -29 18 -119 20 -77 1 -106 4 -106 14 0 6 -4 12 -10 12 -5 0 -9 -6 -7 -12 1
-10 -15 -12 -65 -10 -48 2 -78 -2 -103 -13 -28 -14 -41 -15 -66 -6 -42 15
-191 14 -224 -1 -19 -9 -30 -8 -48 1 -31 16 -670 9 -690 -8 -11 -8 -22 -8 -48
3 -34 14 -69 19 -125 17 -32 -1 -99 -39 -99 -56 0 -6 -8 -21 -17 -35 -9 -14
-19 -51 -23 -82 -9 -80 -25 -83 -26 -6 -1 145 -19 175 -99 163 -47 -7 -63 -7
-130 -4 -22 1 -49 -5 -61 -13 -19 -12 -27 -11 -68 10 -55 28 -129 25 -173 -8
-34 -25 -44 -25 -93 0 -39 20 -150 28 -201 14 -37 -10 -44 -45 -44 -234 0
-204 5 -226 57 -236 59 -11 186 1 215 20 27 18 29 17 78 -7 35 -18 62 -24 88
-21 52 5 112 25 112 37 0 6 9 2 20 -8 19 -17 19 -18 -7 -52 -20 -26 -31 -33
-47 -28 -12 3 -57 8 -101 11 -68 4 -84 2 -109 -14 -28 -20 -29 -20 -62 0 -41
24 -113 27 -164 6 -31 -13 -40 -13 -79 0 -34 11 -51 12 -80 4 -26 -8 -48 -8
-74 -1 -25 7 -49 7 -75 0 -26 -7 -49 -7 -73 -1 -42 13 -81 5 -104 -20 -17 -19
-17 -29 3 -211 16 -140 26 -197 38 -210 21 -24 83 -33 133 -19 31 8 51 8 80
-1 61 -18 128 -4 150 31 l17 29 26 -29 c46 -53 135 -61 205 -19 25 16 34 17
45 7 7 -7 26 -19 41 -26 22 -9 27 -17 22 -30 -20 -48 -45 -217 -45 -304 0 -55
-1 -58 -25 -58 -39 0 -52 -39 -58 -180 -5 -99 -3 -137 11 -185 14 -52 17 -57
23 -35 4 16 7 19 8 8 1 -10 5 -18 10 -18 14 0 8 -123 -7 -128 -9 -3 -12 -40
-11 -139 0 -129 1 -136 24 -159 38 -38 98 -31 152 19 l22 20 12 -26 c7 -15 15
-25 18 -22 4 2 7 -4 8 -13 4 -45 37 -248 55 -337 29 -148 40 -269 34 -369 -4
-76 -2 -95 16 -130 40 -81 394 -407 673 -620 50 -38 102 -83 117 -100 l27 -31
64 32 c184 90 479 374 503 483 15 67 64 173 95 207 19 21 52 59 73 85 21 26
42 46 46 43 5 -3 12 0 16 6 4 8 3 9 -4 5 -20 -12 -14 1 36 82 88 140 122 230
177 475 15 64 28 117 30 117 2 0 17 -13 33 -30 36 -36 49 -37 93 -7 28 19 35
30 37 65 2 25 -1 42 -7 42 -6 0 -11 -10 -11 -22 0 -18 -2 -20 -10 -8 -5 9 -5
19 2 27 5 7 8 23 4 36 -3 13 -2 38 3 55 7 23 6 32 -4 36 -8 3 -16 0 -19 -7 -3
-7 -5 -6 -4 3 1 8 -3 25 -10 38 -7 12 -9 22 -4 22 5 0 15 -11 22 -25 19 -36
28 -23 35 53 4 37 13 81 20 97 38 90 55 177 55 288 0 79 -21 133 -48 122 -9
-4 -23 -9 -29 -12 -15 -6 -18 28 -4 43 5 5 12 50 15 99 3 66 8 90 18 89 14 -1
18 92 4 114 -4 7 -2 12 3 12 6 0 11 8 11 18 0 14 -2 15 -10 2 -8 -13 -10 -13
-10 2 0 9 -4 18 -9 20 -5 2 -11 21 -14 43 -3 22 -9 47 -12 56 -9 24 14 27 182
23 203 -4 213 1 213 111 0 56 21 155 32 155 5 0 8 8 8 18 0 9 9 45 19 80 17
53 18 68 7 93 -7 16 -15 26 -19 22 -4 -3 -7 -2 -7 4 0 7 -25 11 -65 10 -36 0
-65 -5 -65 -10 0 -6 -5 -5 -12 1 -16 12 -286 13 -294 0 -3 -4 -10 -5 -16 -2
-7 4 -8 2 -4 -4 4 -7 2 -12 -4 -12 -6 0 -8 -5 -4 -12 5 -8 2 -9 -10 -5 -10 4
-20 7 -22 7 -3 0 -2 6 2 13 4 6 4 9 0 5 -4 -3 -22 -2 -39 3 -18 5 -54 12 -80
14 -50 5 -67 11 -67 23 0 4 59 6 131 5 72 -1 136 0 143 3 7 3 20 21 29 42 l16
37 83 2 c46 2 109 6 141 9 32 3 63 2 70 -4 17 -13 65 -25 107 -27 141 -5 140
-4 140 -23 0 -15 6 -18 30 -14 23 3 30 0 30 -12 0 -19 20 -22 20 -3 1 21 43
43 118 61 44 11 72 23 72 31 0 15 15 21 83 31 26 3 47 10 47 15 0 5 18 9 40 9
23 0 40 -5 40 -11 0 -8 5 -7 15 1 12 10 19 10 27 2 7 -7 27 -12 45 -12 l33 0
0 200 0 200 -140 0 c-87 0 -140 -4 -140 -10z m180 -29 c0 -6 -4 -13 -10 -16
-5 -3 -10 1 -10 9 0 9 5 16 10 16 6 0 10 -4 10 -9z m-3198 -70 l33 -29 0 -152
0 -152 -33 -29 c-27 -25 -41 -29 -88 -29 -50 0 -59 3 -90 34 l-34 34 0 142 0
142 34 34 c31 31 40 34 90 34 47 0 61 -4 88 -29z m638 2 c25 -24 31 -38 37
-90 l6 -63 -62 0 -61 0 0 55 c0 30 -4 55 -10 55 -6 0 -10 -53 -10 -140 0 -87
4 -140 10 -140 6 0 10 25 10 55 l0 55 61 0 62 0 -7 -56 c-3 -31 -11 -65 -17
-75 -15 -29 -63 -49 -118 -49 -42 0 -56 5 -83 29 l-33 29 0 150 c0 136 2 152
20 172 27 30 51 39 112 39 44 1 58 -4 83 -26z m-899 -12 c17 -21 19 -41 19
-182 0 -195 5 -189 -147 -189 l-103 0 0 201 0 201 106 -4 c97 -3 107 -5 125
-27z m446 -46 l22 -70 0 73 1 72 50 0 50 0 0 -200 0 -200 -53 0 -54 0 -21 73
-20 72 -1 -72 -1 -73 -50 0 -50 0 0 201 0 200 52 -3 52 -3 23 -70z m623 0 c0
-62 3 -75 16 -75 14 0 15 10 9 75 l-7 75 61 0 61 0 0 -200 0 -200 -61 0 -61 0
7 85 c6 75 5 85 -10 85 -14 0 -16 -11 -13 -85 l3 -85 -57 0 -58 0 0 200 0 200
55 0 55 0 0 -75z m350 35 c0 -39 -1 -40 -35 -40 -33 0 -35 -2 -35 -35 0 -33 2
-35 35 -35 34 0 35 -1 35 -40 0 -39 -1 -40 -35 -40 -35 0 -35 0 -35 -45 l0
-45 40 0 c36 0 39 2 45 33 6 37 35 267 35 279 0 4 35 8 79 8 l78 0 22 -162
c12 -90 25 -180 28 -200 l6 -38 -57 0 -56 0 0 35 c0 24 -5 35 -15 35 -10 0
-15 -11 -15 -35 l0 -35 -150 0 -150 0 0 200 0 200 90 0 90 0 0 -40z m483 29
c39 -18 47 -50 47 -198 0 -125 -2 -141 -21 -165 -20 -25 -24 -26 -125 -26
l-104 0 0 200 0 200 90 0 c49 0 100 -5 113 -11z m187 -149 l0 -160 29 0 c26 0
29 -3 33 -40 l4 -40 -88 0 -88 0 0 200 0 200 55 0 55 0 0 -160z m260 120 c0
-39 -1 -40 -35 -40 -33 0 -35 -2 -35 -35 0 -33 2 -35 35 -35 34 0 35 -1 35
-40 0 -39 -1 -40 -35 -40 -35 0 -35 0 -35 -45 l0 -45 40 0 40 0 0 -40 0 -40
-95 0 -95 0 0 200 0 200 90 0 90 0 0 -40z m-1720 -175 c0 -8 -4 -15 -10 -15
-5 0 -10 7 -10 15 0 8 5 15 10 15 6 0 10 -7 10 -15z m1133 -223 c129 -2 167 0
167 10 0 10 3 10 9 -1 5 -7 13 -11 19 -7 5 3 15 -8 22 -24 7 -17 16 -30 20
-30 4 0 5 -24 2 -52 -3 -29 -5 -78 -6 -109 0 -43 -3 -54 -12 -45 -7 6 -10 14
-7 19 2 4 -2 7 -9 8 -11 0 -11 2 0 6 10 4 9 9 -5 20 -13 10 -15 16 -5 19 6 3
10 10 6 15 -3 5 -1 9 4 9 5 0 9 18 9 40 0 22 -4 40 -9 40 -5 0 -7 4 -3 9 13
23 -42 29 -245 29 -211 0 -277 5 -293 21 -5 5 15 12 45 16 29 4 60 11 67 15 8
4 24 5 35 1 12 -4 96 -8 189 -9z m-1794 -87 c16 -8 34 -28 40 -46 14 -41 14
-257 0 -298 -14 -40 -54 -61 -118 -61 -42 0 -56 5 -83 29 l-33 29 0 152 0 152
33 29 c27 24 41 29 83 29 27 0 63 -7 78 -15z m923 -14 l33 -29 0 -152 0 -152
-33 -29 c-27 -25 -41 -29 -87 -29 -46 0 -60 4 -87 29 l-33 29 0 152 0 152 33
29 c27 25 41 29 87 29 46 0 60 -4 87 -29z m-1431 -48 c1 -80 16 -145 18 -78 1
22 4 64 7 93 l7 52 57 0 57 0 7 -52 c3 -29 7 -78 7 -108 2 -43 4 -33 13 50
l11 105 58 3 57 3 -6 -38 c-3 -21 -13 -110 -23 -198 l-17 -160 -71 -3 -71 -3
-7 71 c-7 74 -25 96 -25 31 0 -21 -3 -53 -6 -70 l-6 -31 -69 0 c-49 0 -69 4
-69 13 0 6 -9 89 -20 182 -26 227 -30 205 35 205 l55 0 1 -67z m797 47 c42
-39 41 -148 -1 -168 -12 -6 -16 -11 -8 -11 29 -2 40 -35 41 -118 l0 -83 -55 0
-55 0 0 84 c0 47 -4 88 -10 91 -6 4 -10 -27 -10 -84 l0 -91 -55 0 -55 0 0 200
0 200 93 0 c79 0 96 -3 115 -20z m279 -4 l28 -24 3 -151 c3 -150 3 -151 -22
-176 -23 -23 -31 -25 -126 -25 l-100 0 0 200 0 200 94 0 c86 0 98 -2 123 -24z
m603 -16 c0 -39 -1 -40 -35 -40 -33 0 -35 -2 -35 -35 0 -32 2 -35 30 -35 28 0
30 -2 30 -40 0 -38 -2 -40 -30 -40 l-30 0 0 -85 0 -85 -60 0 -60 0 0 200 0
200 95 0 95 0 0 -40z m320 0 c0 -38 -2 -40 -30 -40 l-30 0 0 -160 0 -160 -55
0 -55 0 0 160 0 160 -34 0 c-33 0 -34 1 -34 40 l-1 40 120 0 119 0 0 -40z
m130 -35 c0 -43 4 -75 10 -75 6 0 10 32 10 75 l0 75 55 0 55 0 0 -200 0 -200
-55 0 -55 0 0 85 c0 50 -4 85 -10 85 -6 0 -10 -35 -10 -85 l0 -85 -60 0 -60 0
0 200 0 200 60 0 60 0 0 -75z m348 35 c0 -40 -1 -40 -39 -40 -38 0 -39 -1 -39
-35 0 -33 2 -35 35 -35 34 0 35 -1 35 -40 0 -39 -1 -40 -35 -40 -35 0 -35 0
-35 -45 l0 -45 40 0 40 0 0 -40 0 -40 -95 0 -95 0 0 200 0 200 94 0 95 0 -1
-40z m327 15 c24 -24 25 -28 25 -180 0 -199 3 -195 -145 -195 l-105 0 0 200 0
200 100 0 c94 0 103 -2 125 -25z m263 -147 c13 -95 26 -185 29 -200 5 -28 5
-28 -51 -28 l-56 0 0 35 c0 24 -5 35 -15 35 -10 0 -15 -11 -15 -35 l0 -35 -60
0 c-33 0 -60 1 -60 3 0 1 11 90 25 197 14 107 25 196 25 198 0 1 35 2 78 2
l77 0 23 -172z m108 115 c8 -62 7 -62 28 30 6 25 10 27 60 27 l53 0 -38 -126
c-30 -98 -39 -142 -39 -200 l0 -74 -55 0 -55 0 0 78 c0 70 -32 217 -65 305 -6
15 0 17 48 17 l56 0 7 -57z m-1442 -75 c-3 -4 0 -8 5 -8 6 0 12 -8 12 -17 1
-17 2 -17 6 0 11 44 20 8 22 -95 1 -83 7 -122 19 -148 16 -33 20 -35 75 -38
38 -2 64 2 78 12 19 13 24 12 52 -4 23 -14 57 -20 122 -22 50 -2 93 -7 98 -13
4 -6 11 -4 17 6 8 14 25 16 104 14 121 -4 140 -9 123 -36 -10 -16 -9 -21 3
-29 9 -6 10 -10 3 -10 -7 0 -10 -6 -7 -13 7 -18 -41 -20 -80 -3 -39 18 -83 29
-121 32 -16 1 -31 7 -33 13 -7 20 -43 11 -67 -16 -19 -22 -24 -24 -25 -11 0
11 -5 15 -15 12 -8 -4 -15 -1 -15 5 0 6 -5 11 -11 11 -6 0 -9 -7 -5 -15 3 -9
0 -15 -8 -15 -8 0 -17 -6 -20 -12 -4 -7 -4 -3 -2 10 4 22 -8 30 -19 12 -3 -5
-13 -10 -21 -10 -8 0 -13 4 -10 9 3 5 -1 12 -10 15 -29 11 -39 6 -19 -10 19
-15 19 -15 -7 -9 -18 5 -28 3 -28 -4 0 -6 -11 -11 -24 -11 -25 0 -32 -27 -11
-43 6 -4 -1 -6 -15 -5 -17 2 -24 -2 -22 -11 2 -10 -4 -12 -23 -7 -17 4 -24 3
-20 -4 8 -12 -17 -14 -30 -1 -6 4 -28 11 -50 14 l-40 5 30 -14 30 -15 -30 6
c-16 3 -37 14 -46 25 -11 13 -25 18 -42 14 -14 -2 -29 0 -32 6 -3 5 -15 10
-25 10 -10 0 -23 8 -29 17 -5 10 -13 15 -16 11 -4 -4 -16 1 -26 11 -12 11 -29
16 -44 13 -17 -3 -27 1 -31 13 -5 11 -9 13 -14 5 -3 -6 -44 -13 -90 -16 -46
-3 -91 -9 -101 -14 -10 -6 -31 -7 -49 -4 -29 6 -30 8 -14 25 19 21 21 20 -51
23 -32 1 -55 -14 -55 -35 0 -7 -12 -25 -26 -40 -24 -25 -27 -26 -45 -11 -19
16 -27 48 -10 38 5 -4 16 -3 25 0 15 6 15 8 -1 20 -17 12 -17 13 5 14 12 0 21
6 20 12 -2 7 7 14 19 16 27 4 72 48 79 79 4 12 9 23 13 23 3 0 5 33 4 72 l-1
73 7 -65 c4 -36 13 -75 20 -87 9 -18 9 -23 -1 -23 -23 0 48 -56 89 -69 33 -11
52 -11 99 -1 63 12 67 12 157 6 41 -2 62 1 73 11 8 8 14 11 14 7 0 -3 7 -1 15
6 8 7 12 16 9 21 -3 5 -2 9 3 9 4 0 8 23 7 51 -1 44 3 52 22 61 13 6 21 16 17
21 -4 6 0 8 10 4 18 -7 20 2 17 61 -1 21 3 32 12 32 10 0 10 2 -1 9 -8 5 -10
14 -6 22 6 9 3 11 -10 5 -15 -5 -16 -4 -5 9 10 12 15 13 21 3 4 -6 5 -16 3
-20z m-572 -43 c3 -13 1 -22 -3 -19 -9 5 -13 44 -5 44 2 0 6 -11 8 -25z m1378
-39 c0 -2 -7 -7 -16 -10 -8 -3 -12 -2 -9 4 6 10 25 14 25 6z m-15 -37 c11 -16
1 -19 -13 -3 -7 8 -8 14 -3 14 5 0 13 -5 16 -11z m-788 -375 c-3 -3 -12 -4
-19 -1 -8 3 -5 6 6 6 11 1 17 -2 13 -5z m63 -8 c0 -11 -19 -15 -25 -6 -3 5 1
10 9 10 9 0 16 -2 16 -4z m-656 -131 c3 -8 1 -15 -4 -15 -6 0 -10 7 -10 15 0
8 2 15 4 15 2 0 6 -7 10 -15z m96 5 c-8 -5 -22 -9 -30 -9 -10 0 -8 3 5 9 27
12 43 12 25 0z m565 0 c3 -5 -1 -10 -9 -10 -9 0 -16 5 -16 10 0 6 4 10 9 10 6
0 13 -4 16 -10z m-633 -36 c-13 -9 -26 -13 -30 -9 -8 8 17 25 38 25 9 0 6 -6
-8 -16z m-42 -9 c0 -19 -54 -77 -63 -68 -9 9 -9 25 1 20 7 -4 42 28 42 38 0 3
0 10 0 15 0 6 5 10 10 10 6 0 10 -7 10 -15z m662 -4 c14 -17 14 -22 2 -46 -11
-21 -11 -31 -3 -41 8 -10 8 -14 0 -14 -6 0 -13 -11 -17 -24 -3 -13 -14 -26
-25 -29 -10 -3 -17 -1 -13 4 3 5 1 9 -4 9 -17 0 0 40 17 41 10 0 8 3 -7 10
-25 10 -21 29 6 29 14 1 13 4 -5 19 -28 24 -29 41 -3 41 11 0 20 5 20 10 0 16
14 12 32 -9z m305 13 c-3 -3 -12 -4 -19 -1 -8 3 -5 6 6 6 11 1 17 -2 13 -5z
m318 -4 c3 -5 -1 -10 -9 -10 -9 0 -16 5 -16 10 0 6 4 10 9 10 6 0 13 -4 16
-10z m-1232 -50 c-5 -17 -2 -18 28 -10 42 12 82 13 75 1 -3 -4 -21 -11 -40
-14 -19 -3 -51 -13 -71 -23 -31 -15 -38 -15 -46 -3 -6 10 0 22 19 41 33 32 42
35 35 8z m1192 10 c3 -5 3 -15 -1 -21 -6 -11 -23 6 -24 24 0 10 18 9 25 -3z
m-1042 -17 c-7 -2 -19 -2 -25 0 -7 3 -2 5 12 5 14 0 19 -2 13 -5z m832 -43 c3
-5 1 -10 -4 -10 -6 0 -11 5 -11 10 0 6 2 10 4 10 3 0 8 -4 11 -10z m68 3 c-7
-2 -21 -2 -30 0 -10 3 -4 5 12 5 17 0 24 -2 18 -5z m132 -13 c-3 -5 -14 -6
-25 -3 -11 3 -18 9 -15 13 3 5 14 6 25 3 11 -3 18 -9 15 -13z m-1747 -15 c-3
-3 -9 2 -12 12 -6 14 -5 15 5 6 7 -7 10 -15 7 -18z m720 18 c-10 -2 -26 -2
-35 0 -10 3 -2 5 17 5 19 0 27 -2 18 -5z m519 -85 c4 -67 5 -100 2 -120 -1 -7
0 -19 2 -26 2 -8 -4 -19 -14 -25 -14 -10 -20 -9 -27 3 -5 8 -5 19 0 25 9 11
14 90 11 180 -3 75 21 42 26 -37z m-413 54 c2 -4 -4 -8 -15 -8 -10 0 -19 4
-19 8 0 4 6 8 14 8 8 0 17 -4 20 -8z m783 2 c-3 -3 -12 -4 -19 -1 -8 3 -5 6 6
6 11 1 17 -2 13 -5z m43 2 c0 -2 -7 -6 -15 -10 -8 -3 -15 -1 -15 4 0 6 7 10
15 10 8 0 15 -2 15 -4z m-104 -44 c1 -23 -14 -27 -50 -13 -18 7 -18 8 5 24 29
21 44 17 45 -11z m-1019 12 c-3 -3 -12 -4 -19 -1 -8 3 -5 6 6 6 11 1 17 -2 13
-5z m840 -26 c-3 -8 -6 -5 -6 6 -1 11 2 17 5 13 3 -3 4 -12 1 -19z m-828 8
c-12 -10 -60 -16 -54 -6 3 5 18 10 32 10 15 0 24 -2 22 -4z m-543 -63 c-2 -34
-7 -49 -18 -51 -21 -4 -29 32 -16 69 17 48 38 37 34 -18z m1178 39 c12 -20 -7
-52 -30 -52 -31 0 -31 -23 1 -40 14 -8 22 -16 17 -19 -16 -11 -20 -39 -9 -51
9 -9 5 -11 -19 -6 -23 5 -35 2 -49 -14 -24 -26 -32 -25 -37 4 -6 29 8 56 27
56 10 0 15 10 15 30 0 17 4 30 10 30 5 0 13 12 16 28 9 36 44 57 58 34z
m-1077 -79 c-3 -10 -5 -4 -5 12 0 17 2 24 5 18 2 -7 2 -21 0 -30z m1813 -4 c0
-13 -13 -11 -35 5 -18 13 -18 14 8 9 15 -3 27 -9 27 -14z m-1405 1 c18 -7 16
-10 -19 -25 -45 -19 -103 -17 -98 4 2 8 -3 18 -10 22 -17 11 101 10 127 -1z
m112 -67 c-7 -6 -67 9 -67 17 0 5 16 3 35 -3 19 -6 33 -12 32 -14z m-535 -35
c-8 -8 -9 -4 -5 13 4 13 8 18 11 10 2 -7 -1 -18 -6 -23z m33 -36 c-8 -8 -25
10 -19 20 4 6 9 5 15 -3 4 -7 6 -15 4 -17z m472 12 c30 -5 48 -2 60 7 12 10
17 11 20 2 3 -7 17 -9 41 -6 l37 6 -17 -24 c-10 -15 -24 -23 -37 -22 -15 2
-21 -3 -21 -16 0 -16 8 -18 65 -18 36 0 65 5 65 11 0 5 3 6 7 3 3 -4 12 -2 20
5 10 8 17 8 25 0 9 -9 7 -12 -9 -12 -11 0 -31 -10 -45 -23 -14 -13 -39 -29
-57 -36 -17 -8 -31 -20 -31 -28 0 -9 -6 -13 -15 -10 -8 4 -17 2 -20 -3 -4 -6
-1 -10 5 -10 26 0 -3 -19 -38 -25 -58 -9 -77 -28 -22 -20 43 6 44 5 20 -9 -14
-9 -33 -15 -43 -16 -10 0 -15 -5 -11 -11 3 -6 -1 -10 -12 -9 -11 1 -37 1 -59
0 -32 -1 -36 -3 -20 -10 34 -15 -74 -11 -130 4 -27 8 -44 15 -37 15 7 1 10 6
7 11 -4 6 -14 9 -23 8 -9 -2 -22 9 -31 27 -9 17 -20 33 -25 36 -4 4 -3 10 3
14 9 5 9 11 -1 22 -10 12 -8 18 12 33 14 11 21 23 17 33 -4 11 -2 14 8 10 8
-3 18 2 21 11 3 9 12 16 19 16 7 0 15 5 17 11 2 6 19 13 38 15 19 2 49 8 65
14 29 9 41 8 132 -6z m-532 -126 c2 -21 0 -40 -4 -43 -14 -8 -21 22 -12 47 8
22 -7 78 -21 78 -4 0 -12 -8 -17 -17 -6 -10 -11 -14 -11 -10 0 5 8 22 18 39
l17 29 13 -43 c7 -24 15 -60 17 -80z m1095 79 c0 -7 -5 -18 -12 -25 -6 -6 -8
-15 -4 -19 4 -4 11 -1 15 6 6 10 10 10 16 2 4 -7 16 -9 27 -5 15 4 18 3 13 -6
-6 -9 -3 -9 13 -1 12 6 25 19 30 27 8 15 11 15 31 -2 11 -11 30 -27 42 -38 24
-20 116 -30 154 -16 16 6 29 4 44 -6 36 -25 24 -34 -46 -35 -38 0 -84 -1 -103
-2 -20 -1 -52 6 -73 18 l-38 20 -18 -21 c-9 -12 -34 -27 -54 -35 -32 -11 -44
-11 -89 4 -32 10 -54 13 -56 7 -4 -12 -88 -12 -184 -2 -37 5 -75 5 -86 1 -13
-5 -19 -3 -19 9 -1 47 70 64 135 32 l43 -21 35 21 c18 12 34 29 34 38 1 15 30
64 30 50 0 -4 12 -3 28 2 43 13 92 12 92 -3z m786 -12 c4 -8 10 -12 15 -9 14
8 11 -9 -7 -34 -8 -12 -20 -19 -26 -16 -6 4 -9 1 -6 -7 3 -8 14 -15 26 -17 12
-2 22 -7 22 -12 0 -21 -24 -60 -37 -60 -8 0 -11 -5 -7 -11 3 -6 0 -15 -7 -20
-17 -11 -51 -1 -62 17 -11 19 -27 17 -28 -3 -1 -17 -2 -17 -6 0 -2 9 -22 26
-44 38 -22 11 -37 24 -34 29 4 6 -3 10 -14 10 -12 0 -21 5 -21 10 0 6 11 10
24 10 13 0 44 8 68 18 27 11 63 17 98 16 45 -2 51 -1 35 8 -23 13 -45 34 -45
42 0 13 51 5 56 -9z m-1906 -29 c0 -11 -19 -15 -25 -6 -3 5 1 10 9 10 9 0 16
-2 16 -4z m1545 -6 c3 -5 -1 -10 -9 -10 -8 0 -18 5 -21 10 -3 6 1 10 9 10 8 0
18 -4 21 -10z m111 -14 c3 -8 1 -23 -6 -33 -10 -16 -10 -15 -5 5 4 13 2 22 -4
22 -6 0 -11 5 -11 10 0 15 20 12 26 -4z m14 -60 c0 -2 -7 -7 -16 -10 -8 -3
-12 -2 -9 4 6 10 25 14 25 6z m-960 -52 c0 -8 -5 -12 -10 -9 -6 4 -8 11 -5 16
9 14 15 11 15 -7z m-27 -10 c3 -4 -1 -13 -9 -21 -17 -18 -29 -11 -21 12 7 16
19 20 30 9z m-26 -120 c-15 -14 -35 -23 -43 -20 -23 9 -16 22 19 34 50 16 54
14 24 -14z m1528 16 c3 -5 1 -10 -4 -10 -6 0 -11 5 -11 10 0 6 2 10 4 10 3 0
8 -4 11 -10z m-1470 -80 c8 0 11 7 8 20 -4 17 -1 20 21 18 14 -1 26 -8 26 -15
0 -7 -7 -10 -15 -7 -8 4 -15 1 -15 -6 0 -9 11 -10 38 -6 22 4 32 3 24 -2 -10
-6 -10 -15 -3 -36 10 -24 8 -28 -15 -36 -32 -13 -57 -12 -26 0 12 5 22 14 22
21 0 6 -7 9 -15 5 -10 -4 -15 1 -15 14 0 16 -7 20 -33 20 -32 0 -33 1 -28 38
l6 37 3 -32 c2 -19 9 -33 17 -33z m-128 29 c-9 -6 -15 -14 -12 -20 4 -5 -6 -8
-22 -8 -17 1 -21 3 -10 6 9 2 17 11 17 19 0 8 10 14 23 14 20 -1 20 -2 4 -11z
m83 -9 c0 -5 -4 -10 -9 -10 -6 0 -13 5 -16 10 -3 6 1 10 9 10 9 0 16 -4 16
-10z m1480 -61 c0 -5 -4 -9 -10 -9 -5 0 -10 7 -10 16 0 8 5 12 10 9 6 -3 10
-10 10 -16z m-1460 -5 c0 -8 -5 -12 -10 -9 -6 4 -8 11 -5 16 9 14 15 11 15 -7z
m294 -22 c3 -5 26 -9 51 -10 25 0 52 -6 61 -12 10 -9 34 -11 79 -6 67 7 84 -3
43 -25 -15 -8 -45 -9 -97 -4 -42 4 -105 7 -141 6 -71 -1 -219 -28 -234 -42
-12 -11 -46 -12 -46 -1 0 9 59 45 80 48 56 8 146 28 150 34 5 7 28 18 42 19 4
1 9 -3 12 -7z m422 -17 c4 -8 14 -15 23 -15 9 0 21 -4 27 -9 5 -5 18 -11 29
-14 14 -3 12 -5 -9 -6 -35 -1 -106 19 -106 31 0 4 8 8 18 9 14 0 14 2 -3 9
-18 8 -18 9 -2 9 10 1 20 -6 23 -14z m-232 -147 c22 -5 44 -16 50 -24 9 -12
17 -13 44 -3 24 8 36 8 47 -1 10 -9 19 -9 35 0 26 14 50 6 50 -16 0 -11 5 -14
16 -10 23 9 73 -15 80 -37 6 -20 -22 -70 -36 -62 -5 3 -11 1 -15 -5 -9 -14
-42 -13 -48 3 -3 9 -8 9 -21 -2 -12 -10 -22 -11 -39 -4 -12 6 -37 8 -55 5 -18
-2 -39 1 -47 8 -10 9 -15 9 -15 1 0 -10 -50 -13 -185 -12 -47 0 -119 12 -129
21 -5 5 -19 4 -32 -2 -20 -9 -27 -8 -38 7 -9 12 -15 15 -20 7 -12 -19 -44 -14
-51 9 -4 11 -4 32 0 46 4 19 11 24 27 20 14 -4 22 0 25 13 6 22 29 29 60 19
14 -5 25 -3 33 7 14 16 43 18 70 4 13 -7 19 -6 24 6 5 12 20 15 68 13 35 -1
81 -6 102 -11z m-275 -172 c14 -16 44 -23 173 -39 53 -7 103 -18 110 -24 6 -7
19 -13 28 -13 9 0 22 -6 29 -12 10 -11 16 -8 31 10 11 13 24 21 29 18 5 -4 13
-1 18 6 4 7 16 14 26 14 14 2 15 -1 6 -12 -9 -11 -8 -14 4 -14 9 0 19 5 22 10
4 6 12 7 18 3 7 -4 22 -6 35 -4 12 1 22 -1 22 -6 0 -14 -67 -73 -84 -73 -8 0
-17 -4 -20 -9 -3 -5 -26 -12 -51 -15 -25 -4 -43 -11 -40 -15 10 -17 -82 -30
-192 -28 -62 1 -113 5 -113 10 0 4 -4 7 -10 7 -5 0 -7 -7 -4 -15 7 -18 -21
-21 -32 -4 -4 7 -21 9 -46 5 -32 -5 -42 -2 -63 18 l-25 25 0 -29 c0 -17 -4
-30 -9 -30 -15 0 -23 18 -11 25 19 12 0 26 -21 15 -15 -9 -19 -7 -19 5 0 8 5
15 12 15 9 0 9 3 0 12 -17 17 4 38 39 38 29 0 38 13 19 25 -5 3 -10 15 -10 26
0 17 3 18 23 7 12 -7 24 -16 27 -19 3 -3 16 -5 30 -4 14 1 31 -2 37 -8 7 -5
22 -7 32 -4 11 3 22 0 24 -7 3 -8 8 -8 17 1 9 8 19 9 31 3 19 -11 49 -4 49 11
0 5 -13 9 -29 9 -16 0 -46 8 -67 17 -22 9 -46 17 -54 17 -8 1 -16 11 -18 24
-4 25 10 29 27 8z m551 -10 c0 -3 -4 -8 -10 -11 -5 -3 -10 -1 -10 4 0 6 5 11
10 11 6 0 10 -2 10 -4z m-690 -36 c0 -5 -2 -10 -4 -10 -3 0 -8 5 -11 10 -3 6
-1 10 4 10 6 0 11 -4 11 -10z m80 0 c0 -5 -2 -10 -4 -10 -3 0 -8 5 -11 10 -3
6 -1 10 4 10 6 0 11 -4 11 -10z m-40 -470 c-18 -12 -40 -13 -40 -2 0 4 12 9
28 10 21 1 23 0 12 -8z m165 -17 c-16 -3 -33 -10 -37 -16 -5 -8 -8 -8 -8 -1 0
18 12 24 44 23 l31 -2 -30 -4z m116 -4 c15 -8 24 -7 35 2 11 9 18 9 22 2 4 -5
21 -17 37 -26 20 -11 24 -16 13 -17 -10 0 -27 -9 -38 -20 l-21 -21 -22 26
c-17 19 -35 27 -77 32 l-55 6 30 13 c37 16 51 17 76 3z m-246 -5 c23 -9 -1
-23 -27 -16 -15 4 -17 7 -6 13 16 11 13 10 33 3z m75 -34 c14 -11 21 -20 17
-20 -11 0 -67 29 -67 35 0 11 27 3 50 -15z m165 -10 c-3 -5 1 -11 7 -13 7 -3
-1 -6 -19 -6 -17 -1 -34 -7 -36 -13 -3 -8 -6 -7 -6 4 -1 10 8 18 22 21 19 4
18 4 -5 6 -16 0 -28 5 -28 9 0 4 16 6 35 4 19 -2 33 -8 30 -12z m105 -35 c-7
-8 -17 -12 -22 -9 -6 4 -5 10 3 15 22 14 33 10 19 -6z m-185 -24 c-6 -5 -25
10 -25 20 0 5 6 4 14 -3 8 -7 12 -15 11 -17z m89 14 c-10 -8 -25 -15 -33 -15
-11 0 -9 4 5 15 10 8 25 15 33 15 11 0 9 -4 -5 -15z m141 -5 c3 -5 2 -10 -4
-10 -5 0 -13 5 -16 10 -3 6 -2 10 4 10 5 0 13 -4 16 -10z m-75 -20 c0 -5 -10
-10 -22 -10 -19 0 -20 2 -8 10 19 13 30 13 30 0z m-415 -78 c-3 -3 -11 0 -18
7 -9 10 -8 11 6 5 10 -3 15 -9 12 -12z"/>
<path d="M1607 5993 c-10 -10 -8 -261 2 -267 16 -10 19 19 16 143 -4 122 -6
137 -18 124z"/>
<path d="M1330 5860 c0 -85 4 -129 10 -125 6 4 10 57 10 125 0 68 -4 121 -10
125 -6 4 -10 -40 -10 -125z"/>
<path d="M2986 5874 c-10 -25 -7 -74 4 -74 6 0 10 20 10 45 0 47 -4 55 -14 29z"/>
<path d="M3250 5860 c0 -71 4 -130 9 -130 12 0 18 43 19 140 1 90 -3 120 -19
120 -5 0 -9 -56 -9 -130z"/>
<path d="M1328 5462 c-3 -10 -4 -67 -2 -128 3 -142 2 -136 14 -129 12 8 14
262 1 269 -5 3 -11 -2 -13 -12z"/>
<path d="M2237 5466 c-10 -25 -8 -238 2 -254 13 -21 18 10 18 128 1 110 -7
160 -20 126z"/>
<path d="M1600 5425 c0 -28 4 -44 10 -40 6 3 10 21 10 40 0 19 -4 37 -10 40
-6 4 -10 -12 -10 -40z"/>
<path d="M1870 5339 c0 -84 4 -128 10 -124 6 4 10 58 10 131 0 76 -4 124 -10
124 -6 0 -10 -50 -10 -131z"/>
<path d="M3600 5340 c0 -85 4 -129 10 -125 6 4 10 57 10 125 0 68 -4 121 -10
125 -6 4 -10 -40 -10 -125z"/>
<path d="M3860 5328 c0 -27 5 -48 10 -48 13 0 13 60 0 80 -7 11 -10 2 -10 -32z"/>
<path d="M3040 5060 c0 -5 5 -10 11 -10 5 0 7 5 4 10 -3 6 -8 10 -11 10 -2 0
-4 -4 -4 -10z"/>
<path d="M2746 4971 c-4 -5 -2 -12 3 -15 5 -4 12 -2 15 3 4 5 2 12 -3 15 -5 4
-12 2 -15 -3z"/>
<path d="M2030 4294 c0 -8 5 -12 10 -9 6 4 8 11 5 16 -9 14 -15 11 -15 -7z"/>
<path d="M2086 4284 c-18 -18 -21 -40 -6 -49 6 -3 10 3 10 13 0 12 9 22 21 25
12 3 18 10 14 16 -9 15 -21 14 -39 -5z"/>
<path d="M2030 4249 c0 -5 5 -7 10 -4 6 3 10 8 10 11 0 2 -4 4 -10 4 -5 0 -10
-5 -10 -11z"/>
<path d="M1967 4243 c-12 -12 -7 -22 8 -17 8 4 15 10 15 15 0 11 -14 12 -23 2z"/>
<path d="M3310 4160 c0 -6 8 -13 18 -16 9 -3 25 -10 34 -15 26 -13 32 -11 18
6 -7 8 -21 15 -31 15 -11 0 -19 5 -19 10 0 6 -4 10 -10 10 -5 0 -10 -5 -10
-10z"/>
<path d="M2618 2953 c7 -3 16 -2 19 1 4 3 -2 6 -13 5 -11 0 -14 -3 -6 -6z"/>
<path d="M2650 2940 c0 -5 14 -10 30 -10 17 0 30 5 30 10 0 6 -13 10 -30 10
-16 0 -30 -4 -30 -10z"/>
<path d="M4203 6053 c-63 -6 -52 -23 15 -23 65 0 98 13 60 23 -12 4 -25 6 -28
5 -3 -1 -24 -3 -47 -5z"/>
<path d="M2090 6039 c0 -5 5 -7 10 -4 6 3 10 8 10 11 0 2 -4 4 -10 4 -5 0 -10
-5 -10 -11z"/>
<path d="M4424 5055 c-9 -14 -20 -22 -25 -19 -5 3 -6 -2 -3 -10 5 -12 -4 -17
-35 -22 -39 -6 -41 -8 -40 -43 1 -31 2 -33 8 -11 5 17 9 21 15 12 4 -6 16 -12
27 -12 10 0 19 -5 19 -11 0 -6 7 -3 16 6 9 9 28 15 43 14 14 -1 63 1 109 5 60
6 82 12 82 22 0 10 -12 14 -39 14 -22 0 -41 4 -43 9 -1 6 -22 11 -45 12 -23 2
-40 6 -37 11 6 10 -14 48 -26 48 -5 0 -17 -11 -26 -25z"/>
<path d="M4107 4974 c-4 -4 -19 -8 -34 -9 -16 -1 -38 -3 -50 -3 -13 -1 -23 -9
-23 -17 0 -7 -8 -19 -17 -24 -16 -9 -16 -12 -3 -21 8 -5 22 -7 30 -4 8 4 41 9
73 12 31 2 60 8 63 13 3 5 0 9 -6 9 -6 0 -8 10 -4 25 4 18 2 25 -8 25 -8 0
-18 -3 -21 -6z"/>
<path d="M4171 4962 c-6 -2 -11 -15 -11 -28 0 -20 5 -24 30 -24 23 0 30 4 30
20 0 11 5 20 10 20 6 0 10 -10 10 -22 l1 -23 18 23 c11 12 26 22 35 22 9 0 16
3 16 8 0 7 -119 11 -139 4z"/>
<path d="M4778 4943 c6 -2 18 -2 25 0 6 3 1 5 -13 5 -14 0 -19 -2 -12 -5z"/>
<path d="M3811 4084 c0 -11 3 -14 6 -6 3 7 2 16 -1 19 -3 4 -6 -2 -5 -13z"/>
<path d="M4400 4062 c0 -17 -46 -27 -112 -27 -38 0 -68 -1 -68 -2 0 -2 7 -15
16 -28 9 -13 13 -29 9 -34 -7 -12 39 -26 54 -17 6 4 18 3 28 -2 16 -9 55 -20
131 -39 15 -4 22 -1 22 10 0 8 9 17 21 20 11 3 23 15 26 26 3 12 12 21 19 21
20 0 18 4 -22 44 -31 31 -38 34 -60 24 -18 -9 -27 -9 -36 0 -14 14 -28 16 -28
4z"/>
<path d="M1642 3046 c-16 -19 -50 -65 -74 -103 -25 -38 -78 -98 -118 -133 -40
-36 -102 -93 -139 -127 -39 -37 -84 -69 -111 -79 -25 -9 -73 -29 -107 -45 -52
-23 -68 -26 -95 -18 -41 12 -122 4 -208 -21 -102 -29 -197 -47 -305 -60 -55
-6 -152 -18 -215 -25 -63 -8 -143 -15 -177 -15 -34 0 -68 -3 -77 -6 -14 -6
-16 -121 -16 -1210 l0 -1204 660 0 660 0 0 215 0 215 60 0 c47 0 60 -3 60 -15
0 -14 3 -14 30 0 40 21 72 19 98 -5 21 -20 22 -29 22 -175 l0 -154 -26 -20
c-34 -27 -64 -27 -98 0 l-26 20 0 -40 c0 -23 5 -41 10 -41 6 0 10 6 10 14 0
10 11 12 45 9 39 -5 47 -2 74 24 l30 30 3 -26 3 -26 149 -2 c98 -2 152 -7 157
-14 9 -16 32 0 25 17 -3 9 1 14 14 14 10 0 21 4 24 9 3 4 -10 86 -29 182 -19
96 -35 180 -35 187 0 9 14 12 52 10 l53 -3 16 -112 c16 -120 29 -155 29 -81 0
25 3 79 6 121 l7 77 54 0 53 0 -5 -37 c-3 -21 -14 -109 -25 -195 -10 -86 -24
-167 -30 -179 -10 -17 -9 -20 2 -17 16 6 37 62 37 105 1 38 21 56 21 18 0 -15
5 -36 12 -48 6 -12 11 -34 10 -49 l-2 -28 1395 0 1395 0 0 850 c0 801 -1 851
-17 857 -10 3 -61 26 -113 50 -186 88 -360 161 -548 229 -117 43 -407 181
-709 337 -78 40 -164 78 -189 83 l-48 9 -47 146 c-25 80 -57 165 -70 190 -22
42 -23 43 -30 19 -4 -14 -8 -74 -8 -135 -1 -60 -13 -182 -26 -270 -14 -88 -25
-178 -25 -201 0 -22 -11 -101 -24 -175 -13 -74 -27 -161 -31 -193 l-7 -60 -18
24 -18 24 -7 -70 c-4 -38 -8 -78 -11 -89 -2 -11 2 -7 10 9 8 18 16 24 20 17 4
-6 5 -15 2 -19 -3 -4 -21 -114 -41 -243 -49 -319 -57 -348 -102 -377 -19 -13
-36 -22 -38 -20 -1 2 -26 48 -54 103 -28 55 -64 125 -81 155 -30 54 -30 57
-29 190 1 105 -2 143 -15 174 -32 77 -19 116 73 228 l55 65 32 -13 c18 -8 39
-11 48 -8 9 3 17 -3 21 -16 4 -12 9 -19 12 -16 4 3 13 0 21 -6 18 -15 40 -19
47 -7 17 26 -138 249 -224 323 -85 74 -119 89 -162 74 -19 -6 -39 -14 -44 -19
-6 -4 -47 -10 -92 -12 -78 -4 -88 -7 -181 -61 -55 -30 -110 -64 -122 -74 l-23
-19 57 -23 c48 -19 63 -31 89 -74 18 -28 43 -77 56 -110 23 -57 24 -62 12
-160 -10 -79 -20 -115 -46 -166 -91 -179 -113 -328 -115 -769 -1 -293 -1 -299
-14 -319 -6 -11 -10 -10 -20 3 -9 13 -26 15 -76 13 l-65 -3 -5 -40 -5 -40 -8
43 -7 42 -70 0 c-56 0 -70 -3 -70 -15 0 -14 -3 -13 -25 1 -18 11 -38 15 -65
11 l-39 -5 -3 42 -3 41 -75 0 -75 0 -5 -62 -5 -61 -29 25 -30 25 22 157 c34
236 71 623 93 966 13 210 2 488 -31 760 -28 230 -21 423 21 609 17 70 28 130
26 133 -2 2 -18 -12 -35 -31z m1643 -2016 c17 -7 15 -9 -12 -9 -18 -1 -33 4
-33 9 0 12 17 12 45 0z m-254 -52 c10 -13 18 -27 19 -32 0 -4 -8 2 -18 14 -16
19 -22 21 -40 11 -28 -15 -28 -23 4 -54 14 -14 19 -24 12 -23 -8 1 -30 20 -50
42 l-36 40 26 -2 c15 0 33 5 40 13 18 17 21 17 43 -9z m149 -58 c-24 -15 -37
-11 -16 5 11 8 22 12 25 9 3 -3 -1 -9 -9 -14z m-95 -20 c-3 -5 -11 -10 -16
-10 -6 0 -7 5 -4 10 3 6 11 10 16 10 6 0 7 -4 4 -10z m54 -63 c-2 -1 -13 -9
-24 -17 -19 -14 -19 -14 -6 3 7 9 18 17 24 17 6 0 8 -1 6 -3z m-1389 -383 c0
-55 0 -55 22 -40 31 22 70 20 102 -5 l26 -20 0 -175 0 -174 -55 0 -55 0 0 148
c0 144 -7 181 -29 168 -7 -5 -11 -59 -11 -162 l0 -154 -60 0 -60 0 0 235 0
235 60 0 60 0 0 -56z m860 26 l0 -30 -60 0 -60 0 0 30 0 30 60 0 60 0 0 -30z
m760 -205 l0 -235 -60 0 -60 0 0 235 0 235 60 0 60 0 0 -235z m-952 128 c20
-15 28 -30 30 -61 l3 -42 -50 0 c-47 0 -50 2 -53 28 -4 36 -32 36 -36 0 -3
-24 3 -30 49 -53 78 -40 99 -65 99 -120 0 -26 -5 -55 -11 -67 -23 -43 -119
-61 -184 -34 -40 17 -55 42 -55 90 l0 36 49 0 c49 0 50 -1 53 -32 2 -22 9 -34
21 -36 13 -3 17 4 17 30 0 30 -6 36 -63 68 -76 44 -94 74 -81 139 8 38 15 49
44 64 45 23 130 19 168 -10z m192 -168 l0 -195 -60 0 -60 0 0 195 0 195 60 0
60 0 0 -195z m240 177 c40 -20 60 -53 60 -99 l0 -33 -54 0 -55 0 -3 37 c-2 20
-9 38 -15 41 -17 5 -19 -233 -2 -244 16 -10 29 15 29 59 l0 37 50 0 50 0 0
-40 c0 -82 -51 -130 -137 -130 -47 0 -100 31 -113 66 -6 14 -10 76 -10 137 0
125 9 149 64 173 43 18 95 17 136 -4z m305 3 c49 -24 55 -48 55 -220 l0 -155
-55 0 c-43 0 -55 3 -55 16 0 14 -2 14 -22 0 -36 -25 -98 -16 -120 18 -13 19
-9 133 5 144 7 6 38 20 70 32 l57 21 0 45 c0 32 -4 44 -15 44 -11 0 -15 -12
-15 -45 l0 -45 -55 0 -55 0 0 41 c0 22 5 49 11 60 28 53 126 75 194 44z m-935
-202 c0 -7 -7 -13 -15 -13 -8 0 -15 -5 -15 -12 0 -6 -3 -9 -6 -6 -3 3 -2 22 2
42 6 33 8 35 20 19 7 -10 14 -24 14 -30z m-269 -69 c15 -81 15 -84 -3 -84 -15
0 -18 8 -18 53 -1 28 -3 70 -6 92 -11 73 10 25 27 -61z m-1804 -64 c1 -22 1
-23 -4 -2 -2 12 -9 22 -14 22 -5 0 -10 -10 -10 -22 l-2 -23 -4 23 c-5 26 -18
28 -32 5 -9 -16 -10 -16 -11 -1 0 19 15 26 50 24 19 -1 25 -7 27 -26z m36 23
c-7 -2 -13 -12 -13 -20 0 -9 -3 -14 -6 -10 -10 10 4 37 18 36 10 0 10 -2 1 -6z
m64 1 c-3 -3 -12 -4 -19 -1 -8 3 -5 6 6 6 11 1 17 -2 13 -5z m93 2 c0 -2 -7
-6 -15 -10 -8 -3 -15 -1 -15 4 0 6 7 10 15 10 8 0 15 -2 15 -4z m95 -6 c3 -6
-1 -7 -9 -4 -18 7 -21 14 -7 14 6 0 13 -4 16 -10z m145 2 c-8 -3 -17 -8 -20
-12 -3 -4 -10 -2 -16 5 -9 9 -5 12 20 12 17 1 24 -2 16 -5z m-372 -31 c-2 -23
-6 -27 -23 -22 -17 4 -18 6 -2 9 9 2 17 12 17 23 0 10 2 19 5 19 3 0 4 -13 3
-29z m-151 -3 c-3 -8 -6 -5 -6 6 -1 11 2 17 5 13 3 -3 4 -12 1 -19z m180 0
c-3 -8 -6 -5 -6 6 -1 11 2 17 5 13 3 -3 4 -12 1 -19z m350 0 c-3 -8 -6 -5 -6
6 -1 11 2 17 5 13 3 -3 4 -12 1 -19z m-237 -13 c0 -1 -9 -5 -20 -8 -12 -3 -20
0 -20 8 0 8 8 11 20 8 11 -3 20 -7 20 -8z"/>
<path d="M3072 198 c-17 -17 -16 -88 2 -88 15 0 26 57 16 85 -4 12 -8 13 -18
3z"/>
<path d="M4983 1735 c0 -8 4 -15 9 -15 4 0 8 7 8 15 0 8 -4 15 -8 15 -5 0 -9
-7 -9 -15z"/>
<path d="M1447 353 c-12 -11 -8 -231 4 -238 17 -11 22 1 27 79 7 112 -7 184
-31 159z"/>
</g>
</svg>
